<?xml version="1.0" encoding="UTF-8"?>
<svg id="Layer_1" xmlns="http://www.w3.org/2000/svg" version="1.1" viewBox="0 0 1366 768">
  
  <defs>
    
  </defs>
  <g>
    <path class="st0" d="M764.46,625.65H121.36c-30.86,0-52.54-25.11-48.34-55.96l50.45-370.37c4.2-30.86,32.73-55.96,63.59-55.96h643.1c30.86,0,52.54,25.11,48.34,55.96l-50.45,370.37c-4.2,30.86-32.73,55.96-63.59,55.96ZM184.27,163.77c-19.6,0-37.71,15.94-40.38,35.54l-50.45,370.37c-2.67,19.6,11.1,35.54,30.7,35.54h643.1c19.6,0,37.71-15.94,40.38-35.54l50.45-370.37c2.67-19.6-11.1-35.54-30.7-35.54H184.27Z"></path>
    <g>
      <path class="st0" d="M191.67,203.8l-24.92,183h82.47c11.23,0,20.75-8.27,22.31-19.4l22.97-163.6h-102.83ZM142.45,565.19h101.31l18.25-129.96c1.9-13.55-8.62-25.66-22.31-25.66h-76.05l-21.19,155.62Z"></path>
      <g>
        <path class="st0" d="M557.93,203.8h-103.26l-14.85,162.11h-4.13l-9.93-162.11h-97.06l-21.44,157.43c-1.84,13.52,8.67,25.57,22.32,25.57h183.76c11.27,0,20.8-8.32,22.32-19.49l22.27-163.51Z"></path>
        <path class="st0" d="M279.48,565.2h103.26l14.67-145.59h4.65l7.53,145.59h99.13l17.72-130.06c1.84-13.52-8.67-25.57-22.32-25.57h-183.76c-11.27,0-20.8,8.32-22.32,19.49l-18.54,136.14Z"></path>
      </g>
      <g>
        <path class="st0" d="M682.93,461.94c-.84,6.2-2.01,10.33-3.49,12.39-1.49,2.07-4.81,3.1-9.97,3.1h-11.36l9.24-67.86h-83.59c-11.27,0-20.8,8.32-22.32,19.49l-18.54,136.14h114.61c38.89,0,68.79-7.91,89.71-23.75,20.91-15.83,33.9-42.33,38.97-79.51l7.13-52.37h-103.26l-7.13,52.37Z"></path>
        <path class="st0" d="M683.43,291.57h11.36c5.16,0,8.2,1.03,9.13,3.1.92,2.07.96,6.2.12,12.39l-10.86,79.74h103.26l10.86-79.74c5.06-37.17-.71-63.67-17.31-79.51-16.61-15.83-44.35-23.75-83.24-23.75h-114.61l-21.44,157.43c-1.84,13.52,8.67,25.57,22.32,25.57h77.45s12.97-95.23,12.97-95.23Z"></path>
      </g>
    </g>
  </g>
  <g>
    <path class="st0" d="M912.57,356.22h9.55v56.28h-9.55v-56.28Z"></path>
    <path class="st0" d="M927.66,356.22h8.87l26.77,39.57v-39.57h9.98v56.28h-8.78l-26.86-39.14v39.14h-9.98v-56.28Z"></path>
    <path class="st0" d="M990.85,411.26c-3.3-1.39-5.95-3.42-7.97-6.1-2.02-2.67-3.08-5.88-3.2-9.64h9.12c.11,2.27.82,4.15,2.13,5.63,1.31,1.48,2.87,2.56,4.69,3.24,1.82.68,3.61,1.05,5.37,1.11,3.07,0,5.7-.68,7.89-2.05,2.19-1.36,3.28-3.5,3.28-6.4,0-2.67-1.02-4.69-3.07-6.05-2.05-1.36-5.26-2.42-9.64-3.15-6.48-.85-11.53-2.64-15.13-5.37-3.61-2.73-5.42-6.51-5.42-11.34,0-3.18.88-5.97,2.64-8.36,1.76-2.39,4.15-4.22,7.16-5.5,3.01-1.28,6.34-1.92,9.98-1.92s7.23.7,10.45,2.09c3.21,1.39,5.8,3.43,7.76,6.1,1.96,2.67,3,5.8,3.11,9.38h-9.21c-.17-3.24-1.42-5.67-3.75-7.29-2.33-1.62-5.12-2.43-8.36-2.43-2.79,0-5.17.72-7.16,2.17-1.99,1.45-3.01,3.43-3.07,5.93,0,2.33.98,4.21,2.94,5.63,1.96,1.42,4.99,2.44,9.08,3.07,7.11,1.08,12.42,3,15.95,5.76,3.52,2.76,5.29,6.67,5.29,11.72s-1.95,9.18-5.84,11.85c-3.9,2.67-8.68,4.01-14.37,4.01-3.81,0-7.36-.7-10.66-2.09Z"></path>
    <path class="st0" d="M1041.41,364.92h-17.48v-8.7h44.94v8.7h-17.48l-.17,47.58h-9.98l.17-47.58Z"></path>
    <path class="st0" d="M1074.5,356.22h9.55v56.28h-9.55v-56.28Z"></path>
    <path class="st0" d="M1107.07,364.92h-17.48v-8.7h44.94v8.7h-17.48l-.17,47.58h-9.98l.17-47.58Z"></path>
    <path class="st0" d="M1151.02,410.58c-3.5-1.85-6.18-4.45-8.06-7.8-1.88-3.35-2.81-7.22-2.81-11.6v-34.96h9.98v34.11c0,4.26,1.13,7.72,3.41,10.36,2.27,2.64,5.54,3.97,9.81,3.97s7.35-1.32,9.59-3.97c2.24-2.64,3.37-6.1,3.37-10.36v-34.11h9.98v34.96c0,4.32-.94,8.16-2.81,11.51-1.88,3.35-4.56,5.97-8.06,7.84-3.49,1.88-7.55,2.81-12.15,2.81s-8.74-.92-12.24-2.77Z"></path>
    <path class="st0" d="M1209.39,364.92h-17.48v-8.7h44.94v8.7h-17.48l-.17,47.58h-9.98l.17-47.58Z"></path>
    <path class="st0" d="M1251.21,409.73c-4.52-2.42-8.1-5.8-10.74-10.15-2.64-4.35-3.97-9.25-3.97-14.71,0-5.74,1.32-10.84,3.97-15.31,2.64-4.46,6.21-7.94,10.7-10.45,4.49-2.5,9.44-3.75,14.84-3.75s10.23,1.24,14.67,3.71c4.44,2.47,7.93,5.91,10.49,10.32,2.56,4.41,3.84,9.39,3.84,14.96s-1.28,10.4-3.84,14.84c-2.56,4.43-6.05,7.9-10.49,10.4-4.43,2.5-9.35,3.75-14.75,3.75s-10.19-1.21-14.71-3.62ZM1249.17,394.8c1.73,3.04,4.08,5.43,7.04,7.16,2.95,1.73,6.19,2.6,9.72,2.6s6.65-.87,9.55-2.6c2.9-1.73,5.2-4.12,6.91-7.16,1.7-3.04,2.56-6.47,2.56-10.28s-.84-7.53-2.52-10.66c-1.68-3.13-3.97-5.54-6.86-7.25-2.9-1.71-6.08-2.56-9.55-2.56s-6.69.87-9.68,2.6c-2.98,1.73-5.36,4.15-7.12,7.25-1.76,3.1-2.64,6.64-2.64,10.62s.87,7.23,2.6,10.28Z"></path>
    <path class="st0" d="M912.57,432.14h8.87l26.77,39.57v-39.57h9.98v56.28h-8.78l-26.86-39.14v39.14h-9.98v-56.28Z"></path>
    <path class="st0" d="M978.53,485.65c-4.52-2.42-8.1-5.8-10.74-10.15-2.64-4.35-3.97-9.25-3.97-14.71,0-5.74,1.32-10.84,3.97-15.31,2.64-4.46,6.21-7.94,10.7-10.45,4.49-2.5,9.44-3.75,14.84-3.75s10.23,1.24,14.67,3.71c4.44,2.47,7.93,5.91,10.49,10.32,2.56,4.41,3.84,9.39,3.84,14.96s-1.28,10.4-3.84,14.84c-2.56,4.43-6.05,7.9-10.49,10.4-4.43,2.5-9.35,3.75-14.75,3.75s-10.19-1.21-14.71-3.62ZM976.48,470.73c1.73,3.04,4.08,5.43,7.04,7.16,2.95,1.73,6.19,2.6,9.72,2.6s6.65-.87,9.55-2.6c2.9-1.73,5.2-4.12,6.91-7.16,1.7-3.04,2.56-6.47,2.56-10.28s-.84-7.53-2.52-10.66c-1.68-3.13-3.97-5.54-6.86-7.25-2.9-1.71-6.08-2.56-9.55-2.56s-6.69.87-9.68,2.6c-2.98,1.73-5.36,4.15-7.12,7.25-1.76,3.1-2.64,6.64-2.64,10.62s.87,7.23,2.6,10.28Z"></path>
    <path class="st0" d="M1019.76,432.14h10.4l16.63,43.06,17.31-43.06h10.4l-23.11,56.28h-9.55l-22.09-56.28Z"></path>
    <path class="st0" d="M1086.65,485.65c-4.52-2.42-8.1-5.8-10.74-10.15-2.64-4.35-3.97-9.25-3.97-14.71,0-5.74,1.32-10.84,3.97-15.31,2.64-4.46,6.21-7.94,10.7-10.45,4.49-2.5,9.44-3.75,14.84-3.75s10.23,1.24,14.67,3.71c4.44,2.47,7.93,5.91,10.49,10.32,2.56,4.41,3.84,9.39,3.84,14.96s-1.28,10.4-3.84,14.84c-2.56,4.43-6.05,7.9-10.49,10.4-4.43,2.5-9.35,3.75-14.75,3.75s-10.19-1.21-14.71-3.62ZM1084.6,470.73c1.73,3.04,4.08,5.43,7.04,7.16,2.95,1.73,6.19,2.6,9.72,2.6s6.65-.87,9.55-2.6c2.9-1.73,5.2-4.12,6.91-7.16,1.7-3.04,2.56-6.47,2.56-10.28s-.84-7.53-2.52-10.66c-1.68-3.13-3.97-5.54-6.86-7.25-2.9-1.71-6.08-2.56-9.55-2.56s-6.69.87-9.68,2.6c-2.98,1.73-5.36,4.15-7.12,7.25-1.76,3.1-2.64,6.64-2.64,10.62s.87,7.23,2.6,10.28Z"></path>
    <path class="st0" d="M1147.92,487.19c-3.3-1.39-5.95-3.42-7.97-6.1-2.02-2.67-3.08-5.88-3.2-9.64h9.12c.11,2.27.82,4.15,2.13,5.63,1.31,1.48,2.87,2.56,4.69,3.24,1.82.68,3.61,1.05,5.37,1.11,3.07,0,5.7-.68,7.89-2.05,2.19-1.36,3.28-3.5,3.28-6.4,0-2.67-1.02-4.69-3.07-6.05-2.05-1.36-5.26-2.42-9.64-3.15-6.48-.85-11.53-2.64-15.13-5.37-3.61-2.73-5.42-6.51-5.42-11.34,0-3.18.88-5.97,2.64-8.36,1.76-2.39,4.15-4.22,7.16-5.5,3.01-1.28,6.34-1.92,9.98-1.92s7.23.7,10.45,2.09c3.21,1.39,5.8,3.43,7.76,6.1,1.96,2.67,3,5.8,3.11,9.38h-9.21c-.17-3.24-1.42-5.67-3.75-7.29-2.33-1.62-5.12-2.43-8.36-2.43-2.79,0-5.17.72-7.16,2.17-1.99,1.45-3.01,3.43-3.07,5.93,0,2.33.98,4.21,2.94,5.63,1.96,1.42,4.99,2.44,9.08,3.07,7.11,1.08,12.42,3,15.95,5.76,3.52,2.76,5.29,6.67,5.29,11.72s-1.95,9.18-5.84,11.85c-3.9,2.67-8.68,4.01-14.37,4.01-3.81,0-7.36-.7-10.66-2.09Z"></path>
    <path class="st0" d="M912.57,508.07h20.47c5.29,0,10.22,1.01,14.79,3.03,4.57,2.02,8.27,5.1,11.09,9.25,2.81,4.15,4.22,9.24,4.22,15.26s-1.36,10.79-4.09,15.14c-2.73,4.35-6.41,7.7-11.04,10.06-4.63,2.36-9.76,3.54-15.39,3.54h-20.04v-56.28ZM932.78,555.65c4.04,0,7.59-.87,10.66-2.6,3.07-1.73,5.43-4.09,7.08-7.08,1.65-2.98,2.5-6.27,2.56-9.85,0-3.81-.8-7.18-2.39-10.1-1.59-2.93-3.88-5.2-6.86-6.82s-6.5-2.43-10.53-2.43h-10.66v38.88h10.15Z"></path>
    <path class="st0" d="M968.68,508.07h38.97v9.98h-28.99v13.64h25.75v8.7h-25.75v13.81h28.82v9.98h-38.8v-56.11Z"></path>
    <path class="st0" d="M1023.85,563.11c-3.3-1.39-5.95-3.42-7.97-6.1-2.02-2.67-3.08-5.88-3.2-9.64h9.12c.11,2.27.82,4.15,2.13,5.63,1.31,1.48,2.87,2.56,4.69,3.24,1.82.68,3.61,1.05,5.37,1.11,3.07,0,5.7-.68,7.89-2.05,2.19-1.36,3.28-3.5,3.28-6.4,0-2.67-1.02-4.69-3.07-6.05-2.05-1.36-5.26-2.42-9.64-3.15-6.48-.85-11.53-2.64-15.13-5.37-3.61-2.73-5.42-6.51-5.42-11.34,0-3.18.88-5.97,2.64-8.36,1.76-2.39,4.15-4.22,7.16-5.5,3.01-1.28,6.34-1.92,9.98-1.92s7.23.7,10.45,2.09c3.21,1.39,5.8,3.43,7.76,6.1,1.96,2.67,3,5.8,3.11,9.38h-9.21c-.17-3.24-1.42-5.67-3.75-7.29-2.33-1.62-5.12-2.43-8.36-2.43-2.79,0-5.17.72-7.16,2.17-1.99,1.45-3.01,3.43-3.07,5.93,0,2.33.98,4.21,2.94,5.63,1.96,1.42,4.99,2.44,9.08,3.07,7.11,1.08,12.42,3,15.95,5.76,3.52,2.76,5.29,6.67,5.29,11.72s-1.95,9.18-5.84,11.85c-3.9,2.67-8.68,4.01-14.37,4.01-3.81,0-7.36-.7-10.66-2.09Z"></path>
    <path class="st0" d="M1074.41,516.77h-17.48v-8.7h44.94v8.7h-17.48l-.17,47.58h-9.98l.17-47.58Z"></path>
    <path class="st0" d="M1107.49,508.07h9.55v56.28h-9.55v-56.28Z"></path>
    <path class="st0" d="M1122.59,508.07h8.87l26.77,39.57v-39.57h9.98v56.28h-8.78l-26.86-39.14v39.14h-9.98v-56.28Z"></path>
    <path class="st0" d="M1188.54,561.57c-4.52-2.42-8.1-5.8-10.74-10.15-2.64-4.35-3.97-9.25-3.97-14.71,0-5.74,1.32-10.84,3.97-15.31,2.64-4.46,6.21-7.94,10.7-10.45,4.49-2.5,9.44-3.75,14.84-3.75s10.23,1.24,14.67,3.71c4.44,2.47,7.93,5.91,10.49,10.32,2.56,4.41,3.84,9.39,3.84,14.96s-1.28,10.4-3.84,14.84c-2.56,4.43-6.05,7.9-10.49,10.4-4.43,2.5-9.35,3.75-14.75,3.75s-10.19-1.21-14.71-3.62ZM1186.5,546.65c1.73,3.04,4.08,5.43,7.04,7.16,2.95,1.73,6.19,2.6,9.72,2.6s6.65-.87,9.55-2.6c2.9-1.73,5.2-4.12,6.91-7.16,1.7-3.04,2.56-6.47,2.56-10.28s-.84-7.53-2.52-10.66c-1.68-3.13-3.97-5.54-6.86-7.25-2.9-1.71-6.08-2.56-9.55-2.56s-6.69.87-9.68,2.6c-2.98,1.73-5.36,4.15-7.12,7.25-1.76,3.1-2.64,6.64-2.64,10.62s.87,7.23,2.6,10.28Z"></path>
    <path class="st0" d="M1249.81,563.11c-3.3-1.39-5.95-3.42-7.97-6.1-2.02-2.67-3.08-5.88-3.2-9.64h9.12c.11,2.27.82,4.15,2.13,5.63,1.31,1.48,2.87,2.56,4.69,3.24,1.82.68,3.61,1.05,5.37,1.11,3.07,0,5.7-.68,7.89-2.05,2.19-1.36,3.28-3.5,3.28-6.4,0-2.67-1.02-4.69-3.07-6.05-2.05-1.36-5.26-2.42-9.64-3.15-6.48-.85-11.53-2.64-15.13-5.37-3.61-2.73-5.42-6.51-5.42-11.34,0-3.18.88-5.97,2.64-8.36,1.76-2.39,4.15-4.22,7.16-5.5,3.01-1.28,6.34-1.92,9.98-1.92s7.23.7,10.45,2.09c3.21,1.39,5.8,3.43,7.76,6.1,1.96,2.67,3,5.8,3.11,9.38h-9.21c-.17-3.24-1.42-5.67-3.75-7.29-2.33-1.62-5.12-2.43-8.36-2.43-2.79,0-5.17.72-7.16,2.17-1.99,1.45-3.01,3.43-3.07,5.93,0,2.33.98,4.21,2.94,5.63,1.96,1.42,4.99,2.44,9.08,3.07,7.11,1.08,12.42,3,15.95,5.76,3.52,2.76,5.29,6.67,5.29,11.72s-1.95,9.18-5.84,11.85c-3.9,2.67-8.68,4.01-14.37,4.01-3.81,0-7.36-.7-10.66-2.09Z"></path>
  </g>
</svg>